<?xml version="1.0" encoding="utf-8"?>
<!-- Generator: Adobe Illustrator 21.0.2, SVG Export Plug-In . SVG Version: 6.00 Build 0)  -->
<svg version="1.1" id="Layer_1" xmlns="http://www.w3.org/2000/svg" xmlns:xlink="http://www.w3.org/1999/xlink" x="0px" y="0px"
	 viewBox="0 0 20 20" style="enable-background:new 0 0 20 20;" xml:space="preserve">
<style type="text/css">
	.st0{fill:#B5332B;}
	.st1{fill:#A22D26;}
	.st2{clip-path:url(#SVGID_2_);}
	.st3{fill:#870B16;}
	.st4{fill:#EAC8AD;}
	.st5{fill:#F2D7BC;}
	.st6{fill:#EAC0A7;}
	.st7{fill:#FFF200;}
	.st8{fill:#F8A41D;}
	.st9{fill:#F98E1C;}
	.st10{fill:#FFFFFF;}
</style>
<g id="women_6">
	<g>
		<circle class="st0" cx="10" cy="10" r="10"/>
		<path class="st1" d="M20,10c0-5.5-4.5-10-10-10v20C15.5,20,20,15.5,20,10z"/>
	</g>
	<g>
		<defs>
			<circle id="SVGID_1_" cx="10" cy="10" r="10"/>
		</defs>
		<clipPath id="SVGID_2_">
			<use xlink:href="#SVGID_1_"  style="overflow:visible;"/>
		</clipPath>
		<g class="st2">
			<path class="st3" d="M10,17.4H6.4c0,0-1.7-1.6-0.8-4c0.8-2.4,1.5-3.3,1.6-5.8c2.5,0,2.8,0,2.8,0V17.4z"/>
			<path class="st3" d="M9.9,17.4h3.6c0,0,1.7-1.6,0.8-4c-0.8-2.4-1.5-3.3-1.6-5.8c-2.5,0-2.8,0-2.8,0V17.4z"/>
			<circle class="st3" cx="10" cy="6.5" r="4.4"/>
			<polygon class="st4" points="11.5,15.9 10,20 8.6,15.9 8.6,12.6 11.5,12.6 			"/>
			<g>
				<path class="st5" d="M10,3.7c-1.4,0-3.7,0.8-3.7,4.6c0,2.2,0.9,3.2,1.2,3.6c0.3,0.4,1.8,1.5,2.5,1.5C10,9.7,10,3.7,10,3.7z"/>
				<path class="st5" d="M5.6,9.2C5.6,8.6,5.9,8.1,6.3,8C6.7,8,7.1,8.4,7.2,9c0.1,0.6-0.2,1.1-0.6,1.2C6.1,10.3,5.7,9.9,5.6,9.2z"/>
			</g>
			<g>
				<g>
					<g>
						<path class="st6" d="M10,3.7c1.4,0,3.7,0.8,3.7,4.6c0,2.2-0.9,3.2-1.2,3.6c-0.3,0.4-1.8,1.5-2.5,1.5C10,9.7,10,3.7,10,3.7z"/>
					</g>
					<g>
						<path class="st6" d="M14.4,9.2c0.1-0.6-0.2-1.1-0.6-1.2c-0.4-0.1-0.8,0.4-0.9,1c-0.1,0.6,0.2,1.1,0.6,1.2
							C13.9,10.3,14.3,9.9,14.4,9.2z"/>
					</g>
				</g>
			</g>
			<path class="st3" d="M10,2.8c-0.1,0-0.1,0-0.2,0c0,0-2.4,0.2-3.1,3.3C6.4,6.4,5.8,7.3,6.6,8.3c0.1-0.9,0.4-1.5,1-1.8
				c1-0.4,1.4,0,2.6-0.9c0.7-0.5,0.9-1.6,0.8-2.1C10.6,2.8,9.9,2.8,10,2.8z"/>
			<path class="st3" d="M10.7,3.7c0,0-0.9,3.2,2.9,4.6C14.5,5.3,12.9,3.4,10.7,3.7z"/>
			<rect x="6.2" y="9.9" transform="matrix(0.707 -0.7072 0.7072 0.707 -5.2738 7.4862)" class="st7" width="0.3" height="0.3"/>
			<rect x="13.5" y="9.9" transform="matrix(0.707 -0.7072 0.7072 0.707 -3.1377 12.6422)" class="st7" width="0.3" height="0.3"/>
			<path class="st8" d="M10,20v-4c0,0-1.1-0.3-1.3-1.2c-0.1-0.4-0.1-0.8-0.1-0.8s-2.4,0.8-2.9,1.6C5.2,17.1,5.1,20,5.1,20H10z"/>
			<path class="st9" d="M10,20v-4c0,0,1.1-0.3,1.3-1.2c0.1-0.4,0.1-0.8,0.1-0.8s2.4,0.8,2.9,1.6c0.4,1.3,0.6,4.3,0.6,4.3H10z"/>
			<path class="st10" d="M10,12.2c0.6,0,1-0.3,1-0.8H9C9,11.8,9.5,12.2,10,12.2z"/>
		</g>
	</g>
</g>
</svg>
