<?xml version="1.0" encoding="utf-8"?>
<!-- Generator: Adobe Illustrator 21.0.2, SVG Export Plug-In . SVG Version: 6.00 Build 0)  -->
<svg version="1.1" id="Layer_1" xmlns="http://www.w3.org/2000/svg" xmlns:xlink="http://www.w3.org/1999/xlink" x="0px" y="0px"
	 viewBox="0 0 20 20" style="enable-background:new 0 0 20 20;" xml:space="preserve">
<style type="text/css">
	.st0{fill:#827977;}
	.st1{fill:#7B7270;}
	.st2{clip-path:url(#SVGID_2_);}
	.st3{fill:#2A2D34;}
	.st4{fill:#D9A78C;}
	.st5{fill:#EAC0A7;}
	.st6{fill:#F2D7BC;}
	.st7{fill:#690102;}
	.st8{fill:#2F343A;}
	.st9{fill:#B9C7D0;}
	.st10{fill:#129E95;}
	.st11{fill:#3A404C;}
	.st12{fill:#FFFFFF;}
</style>
<g id="men_3">
	<g>
		<circle class="st0" cx="10" cy="10" r="10"/>
		<path class="st1" d="M20,10c0-5.5-4.5-10-10-10v20C15.5,20,20,15.5,20,10z"/>
	</g>
	<g>
		<defs>
			<circle id="SVGID_1_" cx="10" cy="10" r="10"/>
		</defs>
		<clipPath id="SVGID_2_">
			<use xlink:href="#SVGID_1_"  style="overflow:visible;"/>
		</clipPath>
		<g class="st2">
			<g>
				<path class="st3" d="M11.8,14.4c0,0,2.8,0.4,3.2,0.8c0.4,0.4,1.1,3.9,1.3,4.7c-4.9,0-6.3,0-6.3,0v-5.1L11.8,14.4z"/>
				<rect x="8.5" y="12.6" class="st4" width="2.9" height="3.2"/>
				<g>
					<path class="st5" d="M10,3.3c1.4,0,3.7,0.8,3.7,4.6c0,2.2-0.7,3.6-1,4c-0.3,0.4-1.9,1.1-2.6,1.1C10,9.3,10,3.3,10,3.3z"/>
					<path class="st5" d="M14.4,8.8c0.1-0.6-0.2-1.1-0.6-1.2c-0.4-0.1-0.8,0.4-0.9,1c-0.1,0.6,0.2,1.1,0.6,1.2
						C13.9,9.9,14.3,9.4,14.4,8.8z"/>
				</g>
				<g>
					<path class="st6" d="M10,3.3c-1.4,0-3.7,0.8-3.7,4.6c0,2.2,0.7,3.6,1,4c0.3,0.4,1.9,1.1,2.6,1.1C10,9.3,10,3.3,10,3.3z"/>
					<path class="st6" d="M5.6,8.8C5.6,8.2,5.8,7.7,6.3,7.6c0.4-0.1,0.8,0.4,0.9,1c0.1,0.6-0.2,1.1-0.6,1.2C6.1,9.9,5.7,9.4,5.6,8.8
						z"/>
				</g>
				<path class="st7" d="M8.1,4.1c0,0-1.2,1.5-0.8,2.8c0.1,1.6-0.1,2.2-0.6,2.6c0.1-1.6,0-2.1-0.6-1.9C5.9,6.4,6.4,3.1,8.1,4.1z"/>
				<path class="st7" d="M11.9,4.1c0,0,1.2,1.5,0.8,2.8c-0.1,1.6,0.1,2.2,0.6,2.6c-0.1-1.6,0-2.1,0.6-1.9
					C14.1,6.4,13.6,3.1,11.9,4.1z"/>
				<path class="st8" d="M8.2,14.4c0,0-2.8,0.4-3.2,0.8c-0.4,0.4-1.1,3.9-1.3,4.7c4.9,0,6.3,0,6.3,0v-5.1L8.2,14.4z"/>
				<polyline class="st9" points="11.9,14.4 10,14.7 8.1,14.4 10,20 				"/>
				<polygon class="st10" points="9.8,15.5 9.5,19.3 10,20 10.5,19.3 10.2,15.5 				"/>
				<path class="st11" d="M8.7,16.8l-1.5-2.2c0.4-0.1,0.8-0.3,1.3-0.3L10,20l-2.1-3L8.7,16.8z"/>
				<path class="st11" d="M11.3,16.8l1.5-2.2c-0.4-0.1-0.8-0.3-1.3-0.3L10,20l2.1-3L11.3,16.8z"/>
				<path class="st10" d="M10.5,15.3L10,15.8l-0.5-0.5l0.5-0.5L10.5,15.3z"/>
				<polygon class="st12" points="10,14.7 11.5,14 12.3,14.4 10.7,15.7 				"/>
				<polygon class="st12" points="10,14.7 8.5,14 7.7,14.4 9.3,15.7 				"/>
			</g>
			<path class="st7" d="M13.5,4.8c-0.6-2.4-4.1-4.3-6.7-0.5C6.7,5,7.4,5.3,7.4,5.3S7.9,4.3,10,4.8c1.1-0.2,2.1-0.4,2.6,0.6
				C13.1,6.3,13.5,4.8,13.5,4.8z"/>
			<path class="st7" d="M12.1,11.5c-0.7,0-1.3-0.6-2.1-0.6c-0.8,0-1.4,0.6-2.1,0.6c-0.8,0-1.3-1.4-1.5-1.9c0.2,1.4,0.7,2.3,0.9,2.6
				c0.3,0.4,1.9,1.1,2.6,1.1h0l0,0c0.8,0,2.4-0.8,2.6-1.1c0.2-0.3,0.7-1.2,0.9-2.6C13.4,10.1,12.9,11.5,12.1,11.5z"/>
			<path class="st12" d="M10,12.1c0.2,0,0.4-0.1,0.4-0.2H9.6C9.6,12,9.8,12.1,10,12.1z"/>
		</g>
	</g>
</g>
</svg>
