<?xml version="1.0" encoding="utf-8"?>
<!-- Generator: Adobe Illustrator 21.0.2, SVG Export Plug-In . SVG Version: 6.00 Build 0)  -->
<svg version="1.1" id="Layer_1" xmlns="http://www.w3.org/2000/svg" xmlns:xlink="http://www.w3.org/1999/xlink" x="0px" y="0px"
	 viewBox="0 0 20 20" style="enable-background:new 0 0 20 20;" xml:space="preserve">
<style type="text/css">
	.st0{fill:#F6A100;}
	.st1{fill:#ED9A00;}
	.st2{clip-path:url(#SVGID_2_);}
	.st3{fill:#D9A78C;}
	.st4{fill:#C74043;}
	.st5{fill:#EAC0A7;}
	.st6{fill:#F2D7BC;}
	.st7{fill:#FFFFFF;}
	.st8{fill:#553828;}
	.st9{fill:#0F958C;}
</style>
<g id="men_5">
	<g>
		<circle class="st0" cx="10" cy="10" r="10"/>
		<path class="st1" d="M20,10c0-5.5-4.5-10-10-10v20C15.5,20,20,15.5,20,10z"/>
	</g>
	<g>
		<defs>
			<circle id="SVGID_1_" cx="10" cy="10" r="10"/>
		</defs>
		<clipPath id="SVGID_2_">
			<use xlink:href="#SVGID_1_"  style="overflow:visible;"/>
		</clipPath>
		<g class="st2">
			<rect x="8.6" y="12.5" class="st3" width="2.9" height="3.2"/>
			<path class="st4" d="M11.5,14.2H12c0.9,0.2,1.9,0.4,2.6,1.2c0.4,0.5,1.2,4.6,1.2,4.6H14h-4v-3.7v-0.9
				C10.8,15.4,11.5,14.9,11.5,14.2z"/>
			<path class="st4" d="M8.6,14.2H8.1c-0.9,0.2-1.9,0.4-2.6,1.2C5,15.9,4.3,20,4.3,20H6h4v-3.7v-0.9C9.2,15.4,8.6,14.9,8.6,14.2z"/>
			<g>
				<path class="st5" d="M10,3.3c1.4,0,3.7,0.8,3.7,4.6c0,2.2-0.7,3.6-1,4c-0.3,0.4-1.9,1.1-2.6,1.1C10,9.3,10,3.3,10,3.3z"/>
				<path class="st5" d="M14.4,8.8c0.1-0.6-0.2-1.1-0.6-1.2c-0.4-0.1-0.8,0.4-0.9,1c-0.1,0.6,0.2,1.1,0.6,1.2
					C14,9.9,14.4,9.4,14.4,8.8z"/>
			</g>
			<g>
				<path class="st6" d="M10,3.3c-1.4,0-3.7,0.8-3.7,4.6c0,2.2,0.7,3.6,1,4c0.3,0.4,1.9,1.1,2.6,1.1C10,9.3,10,3.3,10,3.3z"/>
				<path class="st6" d="M5.7,8.8C5.6,8.2,5.9,7.7,6.3,7.6c0.4-0.1,0.8,0.4,0.9,1c0.1,0.6-0.2,1.1-0.6,1.2C6.1,9.9,5.7,9.4,5.7,8.8z
					"/>
			</g>
			<path class="st7" d="M10,11.7c0.7,0,1.2-0.2,1.2-0.5H8.8C8.8,11.4,9.4,11.7,10,11.7z"/>
			<path class="st8" d="M13,8.2c0.2-0.4,0.5-0.6,0.8-0.6c0,0,0,0,0,0c0.1-0.4,0.2-1,0-1.6c-1.1-3,0.1-3.6,0.1-3.6s-1.2-0.1-2.1,0.7
				c0.6-1,0.9-1.2,0.9-1.2S11.4,1.7,10,3.2C10.3,2.4,10.7,2,10.7,2s-2.9,0-4,2.2C6.1,5.4,6,6.7,6.2,7.7c0,0,0.1,0,0.1,0
				c0.1,0,0.3,0,0.4,0.1c0-0.5,0-0.9,0-0.9C7.3,6.6,7.9,6.2,7.8,5c1.3,0,2,0,2,0H12c0,0-0.1,1.4,1,1.8C13,7.3,13,7.8,13,8.2z"/>
			<path class="st9" d="M10,15.7c1.1,0,2-0.7,2-1.5h-0.5c0,0.6-0.7,1.1-1.5,1.1c-0.8,0-1.5-0.5-1.5-1.1H8.1
				C8.1,15.1,8.9,15.7,10,15.7z"/>
		</g>
	</g>
</g>
</svg>
