<?xml version="1.0" encoding="utf-8"?>
<!-- Generator: Adobe Illustrator 21.0.2, SVG Export Plug-In . SVG Version: 6.00 Build 0)  -->
<svg version="1.1" id="Layer_1" xmlns="http://www.w3.org/2000/svg" xmlns:xlink="http://www.w3.org/1999/xlink" x="0px" y="0px"
	 viewBox="0 0 20 20" style="enable-background:new 0 0 20 20;" xml:space="preserve">
<style type="text/css">
	.st0{fill:#29A69C;}
	.st1{fill:#27A096;}
	.st2{clip-path:url(#SVGID_2_);}
	.st3{fill:#482B1B;}
	.st4{fill:#EAC8AD;}
	.st5{fill:#F2D7BC;}
	.st6{fill:#EAC0A7;}
	.st7{fill:#FFFFFF;}
	.st8{fill:#FAA21C;}
	.st9{fill:#F68E1F;}
	.st10{fill:#39B54A;}
</style>
<g id="women_1_1_">
	<g>
		<circle class="st0" cx="10" cy="10" r="10"/>
		<path class="st1" d="M20,10c0-5.5-4.5-10-10-10v20C15.5,20,20,15.5,20,10z"/>
	</g>
	<g id="women_1">
		<defs>
			<circle id="SVGID_1_" cx="10" cy="10" r="10"/>
		</defs>
		<clipPath id="SVGID_2_">
			<use xlink:href="#SVGID_1_"  style="overflow:visible;"/>
		</clipPath>
		<g class="st2">
			<g>
				<g>
					<g>
						<g>
							<circle class="st3" cx="10" cy="6.5" r="4.4"/>
							<polygon class="st4" points="11.5,15.9 10,20 8.5,15.9 8.5,12.6 11.5,12.6 							"/>
							<g>
								<path class="st5" d="M10,3.7c-1.4,0-3.7,0.8-3.7,4.6c0,2.2,0.9,3.2,1.2,3.6c0.3,0.4,1.8,1.5,2.5,1.5C10,9.7,10,3.7,10,3.7z"
									/>
								<path class="st5" d="M5.6,9.2C5.6,8.6,5.8,8.1,6.3,8C6.7,8,7.1,8.4,7.1,9c0.1,0.6-0.2,1.1-0.6,1.2C6.1,10.3,5.7,9.9,5.6,9.2
									z"/>
							</g>
							<g>
								<g>
									<g>
										<path class="st6" d="M10,3.7c1.4,0,3.7,0.8,3.7,4.6c0,2.2-0.9,3.2-1.2,3.6c-0.3,0.4-1.8,1.5-2.5,1.5C10,9.7,10,3.7,10,3.7
											z"/>
									</g>
									<g>
										<path class="st6" d="M14.4,9.2c0.1-0.6-0.2-1.1-0.6-1.2c-0.4-0.1-0.8,0.4-0.9,1c-0.1,0.6,0.2,1.1,0.6,1.2
											C13.9,10.3,14.3,9.9,14.4,9.2z"/>
									</g>
								</g>
							</g>
							<path class="st4" d="M10,20v-4c0,0-1.1-0.3-1.3-1.2c-0.1-0.4-0.1-0.8-0.1-0.8s-2.4,0.8-2.9,1.6C5.2,17.1,5,20,5,20H10z"/>
							<path class="st4" d="M10,20v-4c0,0,1.1-0.3,1.3-1.2c0.1-0.4,0.1-0.8,0.1-0.8s2.4,0.8,2.9,1.6c0.4,1.3,0.6,4.3,0.6,4.3H10z"/>
							<path class="st4" d="M10,20v-4c0,0-1.1-0.3-1.3-1.2c-0.1-0.4-0.1-0.8-0.1-0.8s-2.4,0.8-2.9,1.6C5.2,17.1,5,20,5,20H10z"/>
							<path class="st4" d="M10,20v-4c0,0,1.1-0.3,1.3-1.2c0.1-0.4,0.1-0.8,0.1-0.8s2.4,0.8,2.9,1.6c0.4,1.3,0.6,4.3,0.6,4.3H10z"/>
							<path class="st7" d="M10,12.2c0.6,0,1-0.3,1-0.8H9C9,11.8,9.4,12.2,10,12.2z"/>
						</g>
						<path class="st3" d="M9.8,2.7C7.2,2.7,6.4,4.9,6.4,6C5.5,7.3,6.5,8.5,7.2,8.9c0-0.2,0-0.3,0-0.6c0-0.8,0.8-1.6,2-1.5
							c1.1,0.1,1.8-0.5,2.3-1.5C12.3,3.8,11.4,2.7,9.8,2.7z"/>
						<path class="st3" d="M11.5,4.8c0,0,0.6,2.5,2.3,3.3c0.3-2.2,0.5-1.7,0-2.9s-2.3-2-2.3-2V4.8z"/>
					</g>
				</g>
			</g>
			<path class="st8" d="M14.3,15.7c-0.4-0.7-2.2-1.4-2.7-1.6c0,0.9-0.7,1.6-1.6,1.6c-0.9,0-1.6-0.7-1.6-1.6
				c-0.6,0.2-2.3,0.9-2.7,1.6C5.2,17.1,5,20,5,20H10h4.9C14.9,20,14.8,17.1,14.3,15.7z"/>
			<path class="st9" d="M14.9,20c0,0-0.1-3-0.6-4.3c-0.4-0.7-2.2-1.4-2.7-1.6c0,0.9-0.7,1.6-1.6,1.6V20H14.9z"/>
			<path class="st10" d="M7.8,14.4c0.2,1,1.1,1.8,2.2,1.8c1.1,0,2-0.8,2.2-1.8c-0.2-0.1-0.4-0.2-0.5-0.2c0,0.9-0.7,1.6-1.6,1.6
				c-0.9,0-1.6-0.7-1.6-1.6C8.2,14.2,8,14.3,7.8,14.4z"/>
			<circle class="st3" cx="10" cy="2.1" r="1.5"/>
		</g>
	</g>
</g>
</svg>
