<?xml version="1.0" ?><!DOCTYPE svg  PUBLIC '-//W3C//DTD SVG 1.1//EN'  'http://www.w3.org/Graphics/SVG/1.1/DTD/svg11.dtd'><svg height="2048px" style="shape-rendering:geometricPrecision; text-rendering:geometricPrecision; image-rendering:optimizeQuality; fill-rule:evenodd; clip-rule:evenodd" viewBox="0 0 2048 2048" width="2048px" xml:space="preserve" xmlns="http://www.w3.org/2000/svg" xmlns:xlink="http://www.w3.org/1999/xlink"><defs><style type="text/css">
   <![CDATA[
    .fil1 {fill:none}
    .fil0 {fill:#424242}
   ]]>
  </style></defs><g id="Layer_x0020_1"><path class="fil0" d="M1466.75 1379.5l-84.3284 0 0.405118 -48.9166c0,-21.7394 17.8335,-39.5729 39.6756,-39.5729l5.4189 0c21.8244,0 39.7477,17.8335 39.7477,39.5729l-0.918898 48.9166zm-316.246 -104.92c-21.3354,0 -38.8477,14.4225 -38.8477,32.002l0 238.08c0,17.5795 17.5122,31.9181 38.8477,31.9181 21.5032,0 38.9988,-14.3386 38.9988,-31.9181l0 -238.08c0,-17.5795 -17.4957,-32.002 -38.9988,-32.002zm513.495 -133.16l0 452.993c0,108.669 -94.252,197.587 -209.41,197.587l-861.183 0c-115.243,0 -209.41,-88.9182 -209.41,-197.587l0 -452.993c0,-108.676 94.167,-197.588 209.41,-197.588l861.183 0c115.158,0 209.41,88.9123 209.41,197.588zm-1013.17 502.163l0 -477.163 106.752 0 0 -70.6749 -284.583 -0.405118 0 69.5008 88.8343 0.236221 0 478.506 88.9973 0zm320.002 -406.079l-89.0044 0 0 254.825c0,36.8457 2.2441,55.2532 -0.0838583,61.7599 -7.25079,19.7327 -39.7429,40.7469 -52.5024,2.15906 -2.08583,-6.74292 -0.253937,-27.1583 -0.253937,-62.165l-0.320079 -256.579 -88.5142 0 0.259843 252.503c0.0850394,38.739 -0.918898,67.5839 0.338977,80.7426 2.15315,23.1732 1.32402,50.1556 22.8284,65.5819 40.0807,28.8402 116.838,-4.32992 135.997,-45.5894l-0.170079 52.6713 71.5087 0.0850394 -0.0838583 -405.995zm284.734 291.84l-0.145276 -212.179c-0.0850394,-80.7485 -60.5882,-129.151 -142.678,-63.828l0.422835 -157.676 -88.9123 0.168898 -0.429922 544.258 73.0867 -1.08898 6.65788 -33.9189c93.4182,85.7564 152.173,27.0071 151.999,-75.7359zm278.596 -28.1799l-66.756 0.424016c-0.0838583,2.58189 -0.168898,5.65394 -0.168898,9.00355l0 37.2508c0,19.9016 -16.4906,36.0721 -36.5008,36.0721l-13.0807 0c-19.9866,0 -36.5008,-16.1705 -36.5008,-36.0721l0 -98.0068 152.831 0 0 -57.4914c0,-42.0107 -1.0878,-84.0142 -4.49882,-108.1 -10.9878,-75.9898 -117.656,-88.0843 -171.585,-49.1528 -16.9134,12.1618 -29.8252,28.4162 -37.3359,50.3256 -7.57087,21.8244 -11.3256,51.6733 -11.3256,89.6682l0 126.418c0,210.239 255.338,180.504 224.921,-0.338977zm-342.34 -686.489c4.58977,11.0728 11.6705,20.1614 21.4193,26.9894 9.49371,6.76064 21.7642,10.0925 36.4158,10.0925 12.8445,0 24.1713,-3.41693 34.0949,-10.5827 9.83268,-7.16575 18.1536,-17.7484 24.9142,-31.917l-1.66299 34.904 99.2422 0 0 -421.91 -78.0827 0 0 328.341c0,17.8335 -14.6764,32.3233 -32.5949,32.3233 -17.8146,0 -32.491,-14.4898 -32.491,-32.3233l0 -328.341 -81.4926 0 0 284.583c0,36.2469 0.659056,60.4182 1.74685,72.6638 1.08898,12.1606 3.90709,23.8323 8.49095,35.1768zm-300.67 -238.334c0,-40.5107 3.43583,-72.0839 10.0878,-94.93 6.74174,-22.7433 18.9272,-40.9819 36.5067,-54.7453 17.4886,-13.8248 39.9118,-20.7543 67.239,-20.7543 22.9311,0 42.5847,4.49882 59.0091,13.3335 16.5756,8.82993 29.2453,20.3315 38.08,34.5792 9.00473,14.2524 15.0815,28.9299 18.4075,43.9264 3.26575,15.2516 4.92874,38.165 4.92874,69.078l0 106.752c0,39.0839 -1.57795,67.9229 -4.58386,86.1615 -3.01181,18.3473 -9.49371,35.3516 -19.5874,51.2681 -9.91772,15.8256 -22.6524,27.5823 -38.1638,35.0681 -15.6567,7.68071 -33.5799,11.3327 -53.8205,11.3327 -22.5921,0 -41.6894,-3.07205 -57.3461,-9.66969 -15.7406,-6.39804 -27.926,-16.2307 -36.5859,-29.2441 -8.75079,-12.9898 -14.9126,-28.8213 -18.6673,-47.2536 -3.75591,-18.4984 -5.50394,-46.2496 -5.50394,-83.1556l0 -111.747zm77.6717 167.575c0,23.9103 17.8394,43.4126 39.5126,43.4126 21.6543,0 39.3189,-19.5024 39.3189,-43.4126l0 -224.576c0,-23.8323 -17.6646,-43.3536 -39.3189,-43.3536 -21.6732,0 -39.5126,19.5213 -39.5126,43.3536l0 224.576zm-274.491 113.428l93.5871 0 0.0850394 -323.582 110.574 -277.187 -102.338 0 -58.839 205.847 -59.5843 -206.423 -101.334 0 117.673 277.908 0.175984 323.437z"/></g><rect class="fil1" height="2048" width="2048"/></svg>